<svg width="24" height="24" viewBox="0 0 24 24" fill="none" xmlns="http://www.w3.org/2000/svg">
<path d="M5.98958 17.3033C5.79432 17.108 5.79432 16.7915 5.98958 16.5962L16.5962 5.98959C16.7914 5.79433 17.108 5.79433 17.3033 5.98959L18.0104 6.6967C18.2057 6.89196 18.2057 7.20854 18.0104 7.40381L7.40379 18.0104C7.20853 18.2057 6.89195 18.2057 6.69669 18.0104L5.98958 17.3033Z" fill="white"/>
<path d="M5.98958 7.40381C5.79432 7.20854 5.79432 6.89196 5.98958 6.6967L6.69669 5.98959C6.89195 5.79433 7.20853 5.79433 7.40379 5.98959L18.0104 16.5962C18.2057 16.7915 18.2057 17.108 18.0104 17.3033L17.3033 18.0104C17.108 18.2057 16.7914 18.2057 16.5962 18.0104L5.98958 7.40381Z" fill="white"/>
</svg>
